# xmcd CD database file
#
# Track frame offsets:
#	150
#	16271
#	24515
#	44231
#	58394
#	70183
#	85227
#	101047
#	110606
#	128625
#	141692
#	158198
#	174438
#	195573
#
# Disc length: 2895 seconds
#
# Revision: 2
# Processed by: cddbd v1.5.2PL0 Copyright (c) Steve Scherf et al.
# Submitted via: jetAudio 7
#
DISCID=cc0b4d0e
DTITLE=Christo en Cobus - Dancing To The Best Of Our Music
DYEAR=2004
DGENRE=Beat
TTITLE0=Because It's Love (Dance Mix)
TTITLE1=Sy Leer My Om Te Jodel
TTITLE2=Going Back
TTITLE3=Oh Lonesome Me
TTITLE4=Lekker Ou Jan
TTITLE5=Tempted
TTITLE6=Baby I Miss You
TTITLE7=Boland Pale Toe
TTITLE8=Jan Van Der Merwe
TTITLE9=Dancing To The Best Of Our Music
TTITLE10=Because It's Love
TTITLE11=Chain Around My Heart
TTITLE12=Medley - Dans Die Hartseer Verby, Mariana, Cabriolet, Se Tog, 
TTITLE12=Tot In A
TTITLE13=Medley - Amazing Grace, Why Me, Old Rugged Cross
EXTD=
EXTT0=
EXTT1=
EXTT2=
EXTT3=
EXTT4=
EXTT5=
EXTT6=
EXTT7=
EXTT8=
EXTT9=
EXTT10=
EXTT11=
EXTT12=
EXTT13=
PLAYORDER=
